<?xml version="1.0" standalone="no"?>
<!DOCTYPE svg PUBLIC "-//W3C//DTD SVG 20010904//EN"
 "http://www.w3.org/TR/2001/REC-SVG-20010904/DTD/svg10.dtd">
<svg version="1.0" xmlns="http://www.w3.org/2000/svg"
 width="206.000000pt" height="136.000000pt" viewBox="0 0 206.000000 136.000000"
 preserveAspectRatio="xMidYMid meet">

<g transform="translate(0.000000,136.000000) scale(0.100000,-0.100000)"
fill="#000000" stroke="none">
<path d="M1011 1233 c-106 -55 -100 -202 10 -234 107 -33 203 74 152 170 -36
68 -103 95 -162 64z m104 -58 c75 -74 -35 -185 -112 -113 -50 47 -12 138 57
138 19 0 40 -9 55 -25z"/>
<path d="M483 1180 c-74 -45 -83 -139 -19 -197 43 -40 102 -45 153 -13 40 24
56 54 56 105 0 99 -105 157 -190 105z m125 -56 c48 -54 7 -134 -68 -134 -33 0
-70 44 -70 83 0 80 84 111 138 51z"/>
<path d="M1509 1185 c-56 -30 -80 -116 -50 -173 19 -35 70 -62 119 -62 88 0
148 100 108 179 -33 62 -117 89 -177 56z m100 -40 c49 -25 57 -90 16 -130 -67
-68 -174 25 -119 103 14 21 45 40 67 41 4 1 21 -6 36 -14z"/>
<path d="M931 942 c-52 -28 -71 -72 -71 -164 l0 -78 -39 0 c-22 0 -46 -3 -54
-6 -12 -4 -16 10 -18 86 -4 89 -5 93 -37 121 -40 36 -77 37 -190 5 -135 -39
-172 -88 -172 -229 l0 -85 -40 -40 c-29 -29 -40 -48 -40 -70 0 -61 79 -120
218 -162 l72 -22 0 -53 c0 -85 45 -125 180 -159 220 -54 600 -36 742 35 56 29
78 63 78 124 l0 53 72 22 c97 29 160 62 192 100 39 46 35 84 -14 132 l-40 40
0 85 c0 139 -39 191 -172 229 -113 32 -150 31 -190 -5 -32 -28 -33 -32 -37
-121 -2 -76 -6 -90 -18 -86 -8 3 -32 6 -54 6 l-39 0 0 78 c0 143 -43 182 -200
182 -73 0 -103 -4 -129 -18z m260 -58 c21 -23 24 -36 27 -123 l4 -98 110 -12
c61 -7 143 -19 181 -27 57 -12 72 -12 78 -2 14 22 -13 36 -91 50 l-75 14 -3
87 c-3 83 -2 87 23 103 24 16 30 16 113 -6 48 -13 99 -31 113 -41 41 -28 59
-87 59 -187 1 -87 1 -87 33 -107 23 -15 33 -29 35 -52 3 -28 -2 -36 -36 -58
-58 -38 -164 -72 -304 -97 -108 -20 -157 -23 -398 -23 -241 0 -290 3 -398 23
-140 25 -246 59 -303 97 -31 20 -39 31 -39 55 0 25 8 36 47 61 27 16 85 41
131 56 64 20 82 29 80 42 -5 21 -50 18 -126 -9 -31 -11 -58 -20 -59 -20 -11 0
0 127 13 160 21 52 51 72 150 99 98 26 99 26 124 1 17 -17 20 -33 20 -113 0
-51 5 -98 10 -103 6 -6 32 -7 68 -3 31 4 107 8 167 8 115 1 142 8 132 35 -5
13 -23 16 -93 16 l-86 0 4 76 c3 69 6 79 31 100 26 22 37 24 131 24 97 0 104
-1 127 -26z m-441 -616 c179 -23 613 -13 738 19 22 5 23 3 20 -48 -3 -53 -4
-54 -49 -77 -88 -44 -177 -56 -399 -56 -222 0 -311 12 -399 56 -45 23 -46 24
-49 77 -3 51 -2 53 20 48 13 -3 66 -12 118 -19z"/>
</g>
</svg>
