<?xml version="1.0" standalone="no"?>
<!DOCTYPE svg PUBLIC "-//W3C//DTD SVG 20010904//EN"
 "http://www.w3.org/TR/2001/REC-SVG-20010904/DTD/svg10.dtd">
<svg version="1.0" xmlns="http://www.w3.org/2000/svg"
 width="980.000000pt" height="980.000000pt" viewBox="0 0 980.000000 980.000000"
 preserveAspectRatio="xMidYMid meet">

<g transform="translate(0.000000,980.000000) scale(0.100000,-0.100000)" stroke="none">
<path d="M3422 7269 c-160 -19 -330 -101 -450 -219 -106 -103 -173 -219 -219
-380 -23 -77 -32 -736 -11 -728 7 3 48 13 90 23 l76 17 4 306 c4 258 7 316 22
362 68 211 229 368 436 427 62 17 139 18 1525 18 1634 0 1509 5 1665 -73 101
-50 202 -151 253 -252 66 -131 69 -152 74 -487 l5 -302 81 -19 c45 -10 86 -15
91 -11 4 4 6 153 4 331 -5 289 -7 331 -26 400 -62 229 -214 412 -427 515 -172
83 -49 77 -1675 79 -795 1 -1478 -2 -1518 -7z"/>
<path d="M3418 6911 c-81 -26 -135 -61 -195 -123 -109 -116 -123 -174 -123
-510 0 -142 1 -258 3 -258 1 1 63 11 137 23 l135 23 5 179 c3 120 9 188 18
202 31 54 24 54 657 51 l585 -3 32 -33 33 -32 3 -128 3 -127 190 0 189 0 0
120 c0 102 3 124 19 149 38 57 19 55 639 56 637 0 625 1 656 -65 13 -26 16
-69 16 -204 l0 -171 24 0 c21 0 160 -22 229 -36 l27 -6 0 251 c0 146 -5 272
-11 303 -25 118 -107 233 -210 295 -111 66 -26 63 -1589 62 -1341 0 -1418 -1
-1472 -18z"/>
<path d="M4235 5994 c-396 -25 -786 -72 -1145 -139 -278 -52 -408 -84 -435
-109 -13 -11 -115 -149 -227 -306 -113 -157 -265 -368 -338 -470 -158 -219
-193 -277 -230 -378 -51 -144 -55 -184 -55 -622 l0 -405 3094 0 3093 0 -1 414
c-1 227 -6 437 -12 465 -29 158 -88 275 -256 506 -69 96 -177 245 -238 330
-356 494 -344 479 -383 490 -94 26 -364 82 -528 110 -341 57 -716 97 -1109
120 -237 14 -978 10 -1230 -6z"/>
<path d="M1805 3378 c-3 -7 -4 -202 -3 -433 l3 -420 215 -2 215 -2 160 239
160 239 2342 1 2342 0 48 -68 c27 -38 100 -146 163 -240 l115 -172 213 3 212
2 0 430 0 430 -3090 3 c-2468 2 -3092 0 -3095 -10z"/>
</g>
</svg>
