<?xml version="1.0" standalone="no"?>
<!DOCTYPE svg PUBLIC "-//W3C//DTD SVG 20010904//EN"
 "http://www.w3.org/TR/2001/REC-SVG-20010904/DTD/svg10.dtd">
<svg version="1.0" xmlns="http://www.w3.org/2000/svg"
 width="980.000000pt" height="980.000000pt" viewBox="0 0 980.000000 980.000000"
 preserveAspectRatio="xMidYMid meet">

<g transform="translate(0.000000,980.000000) scale(0.100000,-0.100000)" stroke="none">
<path d="M4680 8568 c-849 -87 -1571 -713 -1781 -1544 -179 -712 25 -1451 545
-1969 136 -136 247 -222 408 -319 124 -74 124 -66 1 -102 -168 -48 -476 -186
-673 -301 -367 -215 -721 -529 -986 -873 -369 -481 -606 -1071 -678 -1690 -10
-85 -19 -397 -12 -423 9 -37 64 -97 103 -113 74 -31 164 -3 209 66 26 39 28
48 35 218 4 97 13 215 19 262 90 681 391 1292 875 1775 330 330 729 580 1167
729 995 339 2080 149 2902 -510 117 -94 310 -281 403 -389 389 -457 634 -1007
713 -1605 6 -47 15 -164 19 -261 7 -171 8 -178 35 -219 70 -106 227 -105 290
2 24 41 26 54 26 159 -1 535 -165 1137 -440 1614 -382 662 -941 1159 -1643
1459 -87 37 -187 73 -367 132 -8 3 11 19 50 40 659 366 1064 1057 1063 1814
-1 546 -212 1059 -593 1441 -126 127 -185 176 -310 261 -406 275 -891 396
-1380 346z m398 -348 c447 -47 869 -275 1148 -620 197 -243 324 -527 369 -827
21 -137 21 -387 1 -514 -80 -494 -347 -910 -758 -1180 -570 -374 -1326 -370
-1888 9 -264 178 -448 389 -590 677 -92 185 -150 389 -168 590 -11 125 3 386
27 501 83 398 308 762 625 1008 354 275 794 402 1234 356z"/>
</g>
</svg>
