<?xml version="1.0" standalone="no"?>
<!DOCTYPE svg PUBLIC "-//W3C//DTD SVG 20010904//EN"
 "http://www.w3.org/TR/2001/REC-SVG-20010904/DTD/svg10.dtd">
<svg version="1.0" xmlns="http://www.w3.org/2000/svg"
 width="660.000000pt" height="378.000000pt" viewBox="0 0 660.000000 378.000000"
 preserveAspectRatio="xMidYMid meet">

<g transform="translate(0.000000,378.000000) scale(0.100000,-0.100000)"
fill="#000000" stroke="none">
<path d="M1913 3678 c-39 -49 -38 -32 -44 -1023 -6 -1012 -5 -990 -59 -1510
-54 -516 -54 -687 3 -820 37 -87 90 -128 165 -128 111 0 187 110 202 291 8 94
-2 252 -20 322 -25 96 -82 402 -100 538 -39 298 -20 568 54 776 20 54 40 104
44 110 5 6 13 22 18 36 5 14 39 81 76 150 96 181 120 265 121 415 0 104 -4
136 -32 238 -51 190 -166 410 -274 526 -78 84 -130 110 -154 79z"/>
<path d="M970 3435 c-37 -98 -70 -570 -51 -743 10 -97 48 -211 89 -272 9 -14
21 -32 27 -41 5 -9 23 -36 39 -60 93 -139 126 -266 126 -488 0 -173 -25 -513
-50 -666 -11 -66 -24 -151 -29 -190 -5 -38 -18 -110 -27 -160 -11 -58 -17
-142 -17 -235 0 -130 2 -152 25 -217 39 -111 93 -162 173 -165 199 -7 267 291
170 741 -35 166 -74 487 -85 706 -19 383 1 491 126 679 63 94 76 117 103 174
35 73 61 209 61 320 0 117 -28 499 -41 564 -13 64 -30 86 -47 65 -8 -9 -15
-145 -22 -393 -6 -208 -16 -395 -21 -416 -15 -59 -40 -83 -89 -83 -49 0 -73
23 -91 88 -7 26 -14 184 -18 413 -6 381 -10 412 -46 398 -22 -9 -24 -39 -35
-399 -12 -403 -15 -433 -45 -471 -18 -23 -31 -29 -63 -29 -50 0 -78 24 -93 77
-5 22 -14 212 -19 424 -5 211 -11 388 -15 394 -11 17 -25 11 -35 -15z"/>
<path d="M3780 3450 c-78 -10 -272 -59 -355 -90 -399 -147 -754 -478 -918
-855 -60 -139 -67 -157 -96 -277 -111 -443 -28 -925 221 -1297 58 -87 188
-244 232 -281 51 -42 87 -74 110 -96 34 -33 215 -148 291 -186 143 -70 376
-148 441 -148 17 0 56 -5 85 -10 78 -16 317 -13 439 4 332 46 675 219 906 458
245 251 378 498 452 838 24 113 27 145 27 325 0 184 -2 210 -29 330 -16 72
-37 149 -47 173 -11 24 -19 50 -19 58 0 25 -109 243 -156 311 -24 35 -44 67
-44 69 0 13 -156 187 -221 248 -133 123 -229 189 -394 269 -135 66 -225 98
-375 133 -98 22 -143 27 -300 29 -102 2 -214 0 -250 -5z m395 -235 c250 -31
472 -126 682 -292 87 -69 260 -253 275 -293 4 -10 11 -21 17 -25 15 -9 112
-189 134 -250 80 -214 100 -336 94 -565 -4 -165 -8 -197 -35 -295 -16 -60 -43
-144 -60 -185 -26 -65 -43 -99 -96 -195 -22 -39 -80 -121 -125 -175 -313 -376
-806 -563 -1286 -486 -168 27 -289 69 -465 161 -110 58 -250 170 -344 275 -32
36 -64 70 -70 75 -28 25 -129 189 -169 275 -96 207 -132 368 -131 595 0 167
18 284 63 424 29 89 119 282 146 311 8 9 15 20 15 23 0 25 206 253 300 332 44
38 204 137 265 165 39 17 77 35 85 39 47 24 238 75 325 86 137 18 239 18 380
0z"/>
</g>
</svg>
