<?xml version="1.0" standalone="no"?>
<!DOCTYPE svg PUBLIC "-//W3C//DTD SVG 20010904//EN"
 "http://www.w3.org/TR/2001/REC-SVG-20010904/DTD/svg10.dtd">
<svg version="1.0" xmlns="http://www.w3.org/2000/svg"
 width="348.000000pt" height="309.000000pt" viewBox="0 0 348.000000 309.000000"
 preserveAspectRatio="xMidYMid meet">

<g transform="translate(0.000000,309.000000) scale(0.100000,-0.100000)"
fill="#ba0b2f" stroke="none">
<path d="M2045 2976 c-22 -10 -51 -46 -109 -141 -111 -178 -117 -185 -175
-185 -58 0 -63 5 -156 155 -103 167 -110 175 -153 175 -38 0 -441 -160 -474
-188 -31 -26 -30 -65 7 -227 42 -189 43 -208 10 -240 -32 -33 -60 -32 -249 10
-158 36 -193 37 -219 7 -21 -24 -197 -451 -197 -478 0 -35 34 -65 178 -154 72
-45 139 -91 147 -103 19 -27 19 -76 0 -104 -8 -11 -78 -60 -155 -108 -78 -48
-148 -99 -157 -112 -10 -14 -13 -34 -10 -52 12 -57 178 -446 199 -463 28 -25
68 -23 223 12 74 16 151 30 170 30 44 0 85 -37 85 -77 0 -15 -16 -102 -36
-194 -48 -215 -52 -206 111 -276 66 -28 173 -72 237 -99 157 -63 150 -66 269
127 50 82 99 154 109 159 21 11 80 13 104 4 9 -3 57 -73 107 -155 51 -82 98
-154 106 -161 8 -7 29 -12 46 -12 36 1 441 166 471 192 36 33 36 53 -4 233
-22 96 -37 183 -34 194 12 39 46 65 84 65 20 0 107 -16 193 -35 163 -37 185
-36 218 1 14 17 175 391 193 451 14 44 -17 75 -161 162 -76 46 -146 93 -155
105 -10 12 -18 38 -18 63 0 50 6 55 185 163 136 82 155 99 155 144 0 42 -174
456 -201 479 -30 24 -65 22 -245 -19 -147 -33 -161 -34 -190 -21 -57 28 -59
54 -19 232 42 188 44 224 13 252 -18 15 -455 204 -470 203 -1 -1 -17 -7 -33
-14z m-637 -197 c25 -9 48 -37 116 -149 47 -76 93 -141 102 -144 30 -12 258
-6 275 7 9 7 53 72 99 145 105 168 105 168 260 105 135 -55 139 -66 90 -270
-16 -69 -30 -136 -30 -150 0 -19 24 -50 87 -114 103 -106 95 -104 290 -58 123
30 159 32 191 11 20 -13 95 -193 96 -229 0 -17 -6 -38 -13 -47 -8 -9 -66 -49
-130 -88 -174 -107 -161 -88 -161 -240 0 -110 3 -131 18 -146 10 -10 75 -53
144 -97 119 -73 148 -102 148 -140 0 -8 -19 -60 -42 -116 -59 -144 -60 -144
-263 -96 -109 26 -162 34 -177 28 -39 -15 -188 -176 -188 -202 0 -13 14 -80
30 -149 33 -137 36 -186 16 -213 -17 -23 -196 -97 -233 -97 -38 0 -55 19 -145
165 -42 67 -85 125 -99 132 -15 8 -67 13 -135 13 -92 0 -116 -3 -133 -18 -12
-9 -58 -75 -104 -146 -103 -163 -103 -163 -236 -111 -162 64 -163 65 -115 266
21 87 33 160 30 175 -4 13 -45 63 -92 109 -101 100 -93 98 -264 55 -133 -34
-176 -37 -207 -15 -29 21 -106 215 -98 248 8 32 17 39 150 121 159 99 155 93
155 236 0 144 5 137 -162 239 -120 74 -148 99 -148 137 0 29 72 198 95 224 25
27 59 26 213 -10 72 -16 142 -30 157 -30 35 0 205 170 205 205 0 13 -16 88
-35 166 -34 140 -35 143 -17 178 15 32 29 41 122 78 58 24 105 43 106 43 1 0
15 -5 32 -11z"/>
<path d="M1605 2071 c-143 -41 -263 -140 -327 -271 -45 -91 -57 -143 -58 -235
0 -151 53 -278 160 -386 169 -171 415 -206 634 -91 147 77 253 230 278 399 38
258 -140 521 -397 588 -77 20 -214 18 -290 -4z m330 -180 c229 -113 271 -435
80 -610 -89 -81 -213 -115 -330 -91 -286 58 -399 402 -205 622 107 122 300
155 455 79z"/>
</g>
</svg>
